3D InterOp IGES (v. 2021 1.0.0), Spatial Corp. Copyright (c) 1999-2020. S      1
1H,,1H;,6HNoname,11HL1_cam1.igs,13HSpatial Corp.,20H3D InterOp ACIS/IGESG      1
,32,38, 6,308,15,6HNoname,1.000,2,2HMM,1,1.000,15H20220421.171730,      G      2
1.0e-06,0.00,6HNoname,5HZEMAX,11,0,15H20220421.171730;                  G      3
     116       1       0       0       0       0       0       000010001D      1
     116       0       0       1       0       0       0               0D      2
     123       2       0       0       0       0       0       000010201D      3
     123       0       0       1       0       0       0               0D      4
     123       3       0       0       0       0       0       000010201D      5
     123       0       0       1       0       0       0               0D      6
     192       4       0       0       0       0       0       000010001D      7
     192       0       0       1       1       0       0               0D      8
     124       5       0       0       0       0       0       000010001D      9
     124       0       0       1       0       0       0               0D     10
     100       6       0       0       0       0       9       000010001D     11
     100       0       0       2       0       0       0               0D     12
     502       8       0       0       0       0       0       000010001D     13
     502       0       0       2       1       0       0               0D     14
     124      10       0       0       0       0       0       000010001D     15
     124       0       0       1       0       0       0               0D     16
     100      11       0       0       0       0      15       000010001D     17
     100       0       0       1       0       0       0               0D     18
     504      12       0       0       0       0       0       000010001D     19
     504       0       0       1       1       0       0               0D     20
     508      13       0       0       0       0       0       000010001D     21
     508       0       0       1       1       0       0               0D     22
     508      14       0       0       0       0       0       000010001D     23
     508       0       0       1       1       0       0               0D     24
     510      15       0       0       0       0       0       000010001D     25
     510       0       0       1       1       0       0               0D     26
     116      16       0       0       0       0       0       000010001D     27
     116       0       0       1       0       0       0               0D     28
     123      17       0       0       0       0       0       000010201D     29
     123       0       0       1       0       0       0               0D     30
     123      18       0       0       0       0       0       000010201D     31
     123       0       0       1       0       0       0               0D     32
     190      19       0       0       0       0       0       000010001D     33
     190       0       0       1       1       0       0               0D     34
     508      20       0       0       0       0       0       000010001D     35
     508       0       0       1       1       0       0               0D     36
     510      21       0       0       0       0       0       000010001D     37
     510       0       0       1       1       0       0               0D     38
     110      22       0       0       0       0       0       000010001D     39
     110       0       0       1       0       0       0               0D     40
     126      23       0       0       0       0       0       000010001D     41
     126       0       0     111       0       0       0               0D     42
     120     134       0       0       0       0       0       000010001D     43
     120       0       0       1       0       0       0               0D     44
     508     135       0       0       0       0       0       000010001D     45
     508       0       0       1       1       0       0               0D     46
     510     136       0       0       0       0       0       000010001D     47
     510       0       0       1       1       0       0               0D     48
     514     137       0       0       0       0       0       000010001D     49
     514       0       0       1       1       0       0               0D     50
     186     138       0       0       0       0       0       000010001D     51
     186       0       0       1       0       0       0               0D     52
     308     139       0       0       0       0       0       000010001D     53
     308       0       0       1       0       0       0               0D     54
     408     140       0       0       0       0       0       000010001D     55
     408       0       0       1       0       0       0               0D     56
     308     141       0       0       0       0       0       000010001D     57
     308       0       0       1       0       0       0               0D     58
     408     142       0       0       0       0       0       000000001D     59
     408       0       0       1       0       0       0               0D     60
116,0.,0.,10.58421979503373;                                           1P      1
123,0.,0.,1.;                                                          3P      2
123,0.,1.,0.;                                                          5P      3
192,1,3,100.,5;                                                        7P      4
124,0.,1.,0.,0.,1.,0.,0.,0.,0.,0.,-1.,5.00000000000627;                9P      5
100,0.,0.,0.,-100.00000000000023,-0.00000000000001,                   11P      6
-100.00000000000023,0.00000000000001;                                 11P      7
502,3,-0.00000000000001,-100.00000000000023,5.00000000000627,0.,      13P      8
0.,10.08020932860355,0.00000000000001,-100.,0.;                       13P      9
124,0.,-1.,0.,0.,1.,0.,0.,0.,0.,0.,1.,0.;                             15P     10
100,0.,0.,0.,-100.,-0.00000000000001,-100.,0.00000000000001;          17P     11
504,2,11,13,1,13,1,17,13,3,13,3;                                      19P     12
508,1,0,19,1,1,0;                                                     21P     13
508,1,0,19,2,1,0;                                                     23P     14
510,7,2,0,21,23;                                                      25P     15
116,0.,0.,0.;                                                         27P     16
123,0.,0.,1.;                                                         29P     17
123,1.,0.,0.;                                                         31P     18
190,27,29,31;                                                         33P     19
508,1,0,19,2,0,0;                                                     35P     20
510,33,1,1,35;                                                        37P     21
110,0.,0.,10.08020932860355,0.,0.,11.08020932860355;                  39P     22
126,129,3,0,0,1,0,0.,0.,0.,0.,0.015625,0.015625,0.03125,0.03125,      41P     23
0.046875,0.046875,0.0625,0.0625,0.078125,0.078125,0.09375,            41P     24
0.09375,0.109375,0.109375,0.125,0.125,0.140625,0.140625,0.15625,      41P     25
0.15625,0.171875,0.171875,0.1875,0.1875,0.203125,0.203125,            41P     26
0.21875,0.21875,0.234375,0.234375,0.25,0.25,0.265625,0.265625,        41P     27
0.28125,0.28125,0.296875,0.296875,0.3125,0.3125,0.328125,             41P     28
0.328125,0.34375,0.34375,0.359375,0.359375,0.375,0.375,0.390625,      41P     29
0.390625,0.40625,0.40625,0.421875,0.421875,0.4375,0.4375,             41P     30
0.453125,0.453125,0.46875,0.46875,0.484375,0.484375,0.5,0.5,          41P     31
0.515625,0.515625,0.53125,0.53125,0.546875,0.546875,0.5625,           41P     32
0.5625,0.578125,0.578125,0.59375,0.59375,0.609375,0.609375,           41P     33
0.625,0.625,0.640625,0.640625,0.65625,0.65625,0.671875,0.671875,      41P     34
0.6875,0.6875,0.703125,0.703125,0.71875,0.71875,0.734375,             41P     35
0.734375,0.75,0.75,0.765625,0.765625,0.78125,0.78125,0.796875,        41P     36
0.796875,0.8125,0.8125,0.828125,0.828125,0.84375,0.84375,             41P     37
0.859375,0.859375,0.875,0.875,0.890625,0.890625,0.90625,0.90625,      41P     38
0.921875,0.921875,0.9375,0.9375,0.953125,0.953125,0.96875,            41P     39
0.96875,0.984375,0.984375,1.,1.,1.,1.,1.,1.,1.,1.,1.,1.,1.,1.,        41P     40
1.,1.,1.,1.,1.,1.,1.,1.,1.,1.,1.,1.,1.,1.,1.,1.,1.,1.,1.,1.,1.,       41P     41
1.,1.,1.,1.,1.,1.,1.,1.,1.,1.,1.,1.,1.,1.,1.,1.,1.,1.,1.,1.,1.,       41P     42
1.,1.,1.,1.,1.,1.,1.,1.,1.,1.,1.,1.,1.,1.,1.,1.,1.,1.,1.,1.,1.,       41P     43
1.,1.,1.,1.,1.,1.,1.,1.,1.,1.,1.,1.,1.,1.,1.,1.,1.,1.,1.,1.,1.,       41P     44
1.,1.,1.,1.,1.,1.,1.,1.,1.,1.,1.,1.,1.,1.,1.,1.,1.,1.,1.,1.,1.,       41P     45
1.,1.,1.,1.,1.,1.,1.,1.,1.,1.,1.,1.,1.,1.,1.,1.,1.,0.,0.,             41P     46
10.08020932860355,0.,0.52604166666667,10.08020932860355,0.,           41P     47
1.05208333333333,10.07976248570518,0.,2.10416666666667,               41P     48
10.0779751983048,0.,2.63020833333333,10.07663475380809,0.,            41P     49
3.68229166666667,10.07306051572167,0.,4.20833333333333,               41P     50
10.07082672214252,0.,5.26041666666667,10.06546620648159,0.,           41P     51
5.78645833333333,10.06233948441563,0.,6.83854166666667,               41P     52
10.05519370005551,0.,7.36458333333333,10.0511746377824,0.,            41P     53
8.41666666666667,10.04224492841373,0.,8.94270833333333,               41P     54
10.03733428134437,0.,9.99479166666667,10.02662232421169,0.,           41P     55
10.52083333333333,10.02082101417968,0.,11.57291666666667,             41P     56
10.00832881850992,0.,12.09895833333333,10.00163793290853,0.,          41P     57
13.15104166666667,9.98736783803274,0.,13.67708333333333,              41P     58
9.97978862879966,0.,14.72916666666667,9.96374330197209,0.,            41P     59
15.25520833333333,9.9552771844238,0.,16.30729166666667,               41P     60
9.93745961834304,0.,16.83333333333333,9.92810816986156,0.,            41P     61
17.88541666666667,9.90852167989915,0.,18.41145833333333,              41P     62
9.89828663847387,0.,19.46354166666667,9.8769348596162,0.,             41P     63
19.98958333333333,9.86581812224402,0.,21.04166666666667,              41P     64
9.84270500575419,0.,21.56770833333333,9.83070862670119,0.,            41P     65
22.61979166666667,9.8058384365078,0.,23.14583333333333,               41P     66
9.79296462543634,0.,24.19791666666667,9.76634193425683,0.,            41P     67
24.72395833333333,9.75259305422186,0.,25.77604166666667,              41P     68
9.72422273942858,0.,26.30208333333333,9.70960130474733,0.,            41P     69
27.35416666666667,9.67948854398477,0.,27.88020833333333,              41P     70
9.66399721798435,0.,28.93229166666667,9.63214748454668,0.,            41P     71
29.45833333333333,9.61578907719401,0.,30.51041666666667,              41P     72
9.58220813517226,0.,31.03645833333333,9.56498560059128,0.,            41P     73
32.08854166666666,9.52967949979995,0.,32.61458333333334,              41P     74
9.51159593368103,0.,33.66666666666666,9.47457100437424,0.,            41P     75
34.19270833333334,9.45562964128096,0.,35.24479166666666,              41P     76
9.41689248866862,0.,35.77083333333334,9.39709669924711,0.,            41P     77
36.82291666666666,9.35665419782167,0.,37.34895833333334,              41P     78
9.33600748591807,0.,38.40104166666666,9.29386677360292,0.,            41P     79
38.92708333333334,9.27237277329431,0.,39.97916666666666,              41P     80
9.2285412454248,0.,40.50520833333334,9.20620371796926,0.,             41P     81
41.55729166666666,9.16068902111768,0.,42.08333333333334,              41P     82
9.13751185182922,0.,43.13541666666666,9.0903218774851,0.,             41P     83
43.66145833333334,9.06630907253904,0.,44.71354166666666,              41P     84
9.01745195065621,0.,45.23958333333334,8.99260763383087,0.,            41P     85
46.29166666666666,8.94209172625288,0.,46.81770833333334,              41P     86
8.91642013561331,0.,47.86979166666666,8.86425402938868,0.,            41P     87
48.39583333333334,8.83775951391817,0.,49.44791666666666,              41P     88
8.78395201451703,0.,49.97395833333334,8.7566390307022,0.,             41P     89
51.02604166666666,8.70119915514575,0.,51.55208333333334,              41P     90
8.67307226352099,0.,52.60416666666666,8.61600923343522,0.,            41P     91
53.13020833333334,8.58707309509196,0.,54.18229166666666,              41P     92
8.52839632969693,0.,54.70833333333334,8.49865570276362,0.,            41P     93
55.76041666666666,8.43837481180939,0.,56.28645833333334,              41P     94
8.40783454790746,0.,57.33854166666666,8.3459593245677,0.,             41P     95
57.86458333333334,8.31462436524919,0.,58.91666666666666,              41P     96
8.25116477898321,0.,59.44270833333334,8.21904015215524,0.,            41P     97
60.49479166666666,8.15400634154909,0.,61.02083333333334,              41P     98
8.12109715789043,0.,62.07291666666666,8.05449942348738,0.,            41P     99
62.59895833333334,8.02081087286235,0.,63.65104166666666,              41P    100
7.95265966999276,0.,64.17708333333333,7.91819701786724,0.,            41P    101
65.22916666666667,7.84850294948771,0.,65.75520833333333,              41P    102
7.81327153335227,0.,66.80729166666667,7.74204534290356,0.,            41P    103
67.33333333333333,7.70605056870825,0.,68.38541666666667,              41P    104
7.63330313300113,0.,68.91145833333333,7.59655047160653,0.,            41P    105
69.96354166666667,7.52229279374443,0.,70.48958333333333,              41P    106
7.48478777739326,0.,71.54166666666667,7.40903097974028,0.,            41P    107
72.06770833333333,7.37077919855378,0.,73.11979166666667,              41P    108
7.29353451575621,0.,73.64583333333333,7.25454161425929,0.,            41P    109
74.69791666666667,7.17582038632845,0.,75.22395833333333,              41P    110
7.13609206000742,0.,76.27604166666667,7.05590572547134,0.,            41P    111
76.80208333333333,7.01544771736781,0.,77.85416666666667,              41P    112
6.93380780649872,0.,78.38020833333333,6.89262590384319,0.,            41P    113
79.43229166666667,6.80954403196762,0.,79.95833333333333,              41P    114
6.76764406285603,0.,81.01041666666667,6.6831319237538,0.,             41P    115
81.53645833333333,6.64051975386995,0.,82.58854166666667,              41P    116
6.554589113268,0.,83.11458333333333,6.51127064265493,0.,              41P    117
84.16666666666667,6.42393333182156,0.,84.69270833333333,              41P    118
6.37991449170443,0.,85.74479166666667,6.29118240114905,0.,            41P    119
86.27083333333333,6.24646915081206,0.,87.32291666666667,              41P    120
6.15635422409543,0.,87.84895833333333,6.11095254781508,0.,            41P    121
88.90104166666667,6.01946677547428,0.,89.42708333333333,              41P    122
5.97338267951107,0.,90.47916666666667,5.88053809310331,0.,            41P    123
91.00520833333333,5.8337776027539,0.,92.05729166666667,               41P    124
5.73958626902295,0.,92.58333333333333,5.6921554257344,0.,             41P    125
93.63541666666667,5.59662944090283,0.,94.16145833333333,              41P    126
5.5485342994506,0.,95.21354166666667,5.45168578364088,0.,             41P    127
95.73958333333333,5.40293240937196,0.,96.79166666666667,              41P    128
5.30477350115913,0.,97.31770833333333,5.25536796730152,0.,            41P    129
98.36979166666667,5.15591081839954,0.,98.89583333333333,              41P    130
5.10585920343917,0.,99.94791666666667,5.0051159735231,0.,             41P    131
100.47395833333333,4.95442435864909,0.,101.,4.9034157844819,0.,       41P    132
0.99009900990099;                                                     41P    133
120,39,41,0.,6.28318530717959;                                        43P    134
508,1,0,19,1,0,0;                                                     45P    135
510,43,1,0,45;                                                        47P    136
514,3,25,1,37,0,47,1;                                                 49P    137
186,49,1,0;                                                           51P    138
308,0,14Hsurfaces 10,11,1,51;                                         53P    139
408,53,0.,0.,0.,1.;                                                   55P    140
308,1,23Helliptical_stop_set.zos,1,55;                                57P    141
408,57,0.,0.,0.,1.;                                                   59P    142
S      1G      3D     60P    142                                        T      1
