3D InterOp IGES (v. 2021 1.0.0), Spatial Corp. Copyright (c) 1999-2020. S      1
1H,,1H;,6HNoname,11HL2_cam1.igs,13HSpatial Corp.,20H3D InterOp ACIS/IGESG      1
,32,38, 6,308,15,6HNoname,1.000,2,2HMM,1,1.000,15H20220421.171653,      G      2
1.0e-06,0.00,6HNoname,5HZEMAX,11,0,15H20220421.171653;                  G      3
     116       1       0       0       0       0       0       000010001D      1
     116       0       0       1       0       0       0               0D      2
     123       2       0       0       0       0       0       000010201D      3
     123       0       0       1       0       0       0               0D      4
     123       3       0       0       0       0       0       000010201D      5
     123       0       0       1       0       0       0               0D      6
     192       4       0       0       0       0       0       000010001D      7
     192       0       0       1       1       0       0               0D      8
     124       5       0       0       0       0       0       000010001D      9
     124       0       0       1       0       0       0               0D     10
     100       6       0       0       0       0       9       000010001D     11
     100       0       0       1       0       0       0               0D     12
     502       7       0       0       0       0       0       000010001D     13
     502       0       0       2       1       0       0               0D     14
     124       9       0       0       0       0       0       000010001D     15
     124       0       0       1       0       0       0               0D     16
     100      10       0       0       0       0      15       000010001D     17
     100       0       0       2       0       0       0               0D     18
     504      12       0       0       0       0       0       000010001D     19
     504       0       0       1       1       0       0               0D     20
     508      13       0       0       0       0       0       000010001D     21
     508       0       0       1       1       0       0               0D     22
     508      14       0       0       0       0       0       000010001D     23
     508       0       0       1       1       0       0               0D     24
     510      15       0       0       0       0       0       000010001D     25
     510       0       0       1       1       0       0               0D     26
     110      16       0       0       0       0       0       000010001D     27
     110       0       0       1       0       0       0               0D     28
     126      17       0       0       0       0       0       000010001D     29
     126       0       0     113       0       0       0               0D     30
     120     130       0       0       0       0       0       000010001D     31
     120       0       0       1       0       0       0               0D     32
     508     131       0       0       0       0       0       000010001D     33
     508       0       0       1       1       0       0               0D     34
     510     132       0       0       0       0       0       000010001D     35
     510       0       0       1       1       0       0               0D     36
     116     133       0       0       0       0       0       000010001D     37
     116       0       0       1       0       0       0               0D     38
     123     134       0       0       0       0       0       000010201D     39
     123       0       0       1       0       0       0               0D     40
     123     135       0       0       0       0       0       000010201D     41
     123       0       0       1       0       0       0               0D     42
     190     136       0       0       0       0       0       000010001D     43
     190       0       0       1       1       0       0               0D     44
     508     137       0       0       0       0       0       000010001D     45
     508       0       0       1       1       0       0               0D     46
     510     138       0       0       0       0       0       000010001D     47
     510       0       0       1       1       0       0               0D     48
     514     139       0       0       0       0       0       000010001D     49
     514       0       0       1       1       0       0               0D     50
     186     140       0       0       0       0       0       000010001D     51
     186       0       0       1       0       0       0               0D     52
     308     141       0       0       0       0       0       000010001D     53
     308       0       0       1       0       0       0               0D     54
     408     142       0       0       0       0       0       000010001D     55
     408       0       0       1       0       0       0               0D     56
     308     143       0       0       0       0       0       000010001D     57
     308       0       0       1       0       0       0               0D     58
     408     144       0       0       0       0       0       000000001D     59
     408       0       0       1       0       0       0               0D     60
116,0.,0.,12.82926725167589;                                           1P      1
123,0.,0.,1.;                                                          3P      2
123,0.,1.,0.;                                                          5P      3
192,1,3,85.,5;                                                         7P      4
124,0.,1.,0.,0.,1.,0.,0.,0.,0.,0.,-1.,12.21834976350085;               9P      5
100,0.,0.,0.,-85.,-0.00000000000001,-85.,0.00000000000001;            11P      6
502,3,-0.00000000000001,-85.,12.21834976350085,0.,0.,0.,              13P      7
0.00000000000001,-84.99999999999983,7.2183497636838;                  13P      8
124,0.,-1.,0.,0.,1.,0.,0.,0.,0.,0.,1.,7.2183497636838;                15P      9
100,0.,0.,0.,-84.99999999999983,-0.00000000000001,                    17P     10
-84.99999999999983,0.00000000000001;                                  17P     11
504,2,11,13,1,13,1,17,13,3,13,3;                                      19P     12
508,1,0,19,1,1,0;                                                     21P     13
508,1,0,19,2,1,0;                                                     23P     14
510,7,2,0,21,23;                                                      25P     15
110,0.,0.,7.2183497636838,0.,0.,8.2183497636838;                      27P     16
126,129,3,0,0,1,0,-1.,-1.,-1.,-1.,-0.984375,-0.984375,-0.96875,       29P     17
-0.96875,-0.953125,-0.953125,-0.9375,-0.9375,-0.921875,               29P     18
-0.921875,-0.90625,-0.90625,-0.890625,-0.890625,-0.875,-0.875,        29P     19
-0.859375,-0.859375,-0.84375,-0.84375,-0.828125,-0.828125,            29P     20
-0.8125,-0.8125,-0.796875,-0.796875,-0.78125,-0.78125,-0.765625,      29P     21
-0.765625,-0.75,-0.75,-0.734375,-0.734375,-0.71875,-0.71875,          29P     22
-0.703125,-0.703125,-0.6875,-0.6875,-0.671875,-0.671875,              29P     23
-0.65625,-0.65625,-0.640625,-0.640625,-0.625,-0.625,-0.609375,        29P     24
-0.609375,-0.59375,-0.59375,-0.578125,-0.578125,-0.5625,-0.5625,      29P     25
-0.546875,-0.546875,-0.53125,-0.53125,-0.515625,-0.515625,-0.5,       29P     26
-0.5,-0.484375,-0.484375,-0.46875,-0.46875,-0.453125,-0.453125,       29P     27
-0.4375,-0.4375,-0.421875,-0.421875,-0.40625,-0.40625,-0.390625,      29P     28
-0.390625,-0.375,-0.375,-0.359375,-0.359375,-0.34375,-0.34375,        29P     29
-0.328125,-0.328125,-0.3125,-0.3125,-0.296875,-0.296875,              29P     30
-0.28125,-0.28125,-0.265625,-0.265625,-0.25,-0.25,-0.234375,          29P     31
-0.234375,-0.21875,-0.21875,-0.203125,-0.203125,-0.1875,-0.1875,      29P     32
-0.171875,-0.171875,-0.15625,-0.15625,-0.140625,-0.140625,            29P     33
-0.125,-0.125,-0.109375,-0.109375,-0.09375,-0.09375,-0.078125,        29P     34
-0.078125,-0.0625,-0.0625,-0.046875,-0.046875,-0.03125,-0.03125,      29P     35
-0.015625,-0.015625,0.,0.,0.,0.,1.,1.,1.,1.,1.,1.,1.,1.,1.,1.,        29P     36
1.,1.,1.,1.,1.,1.,1.,1.,1.,1.,1.,1.,1.,1.,1.,1.,1.,1.,1.,1.,1.,       29P     37
1.,1.,1.,1.,1.,1.,1.,1.,1.,1.,1.,1.,1.,1.,1.,1.,1.,1.,1.,1.,1.,       29P     38
1.,1.,1.,1.,1.,1.,1.,1.,1.,1.,1.,1.,1.,1.,1.,1.,1.,1.,1.,1.,1.,       29P     39
1.,1.,1.,1.,1.,1.,1.,1.,1.,1.,1.,1.,1.,1.,1.,1.,1.,1.,1.,1.,1.,       29P     40
1.,1.,1.,1.,1.,1.,1.,1.,1.,1.,1.,1.,1.,1.,1.,1.,1.,1.,1.,1.,1.,       29P     41
1.,1.,1.,1.,1.,1.,1.,1.,1.,1.,1.,1.,1.,1.,1.,0.,                      29P     42
85.84999999999999,7.35767265949899,0.,85.40286458333333,              29P     43
7.28407377056322,0.,84.95572916666666,7.21096216745631,0.,            29P     44
84.06145833333332,7.06572048787509,0.,83.61432291666667,              29P     45
6.99359041148564,0.,82.72005208333333,6.85031871211539,0.,            29P     46
82.27291666666666,6.77917708922069,0.,81.37864583333332,              29P     47
6.63788919268539,0.,80.93151041666667,6.56774291913209,0.,            29P     48
80.03723958333333,6.42845258359299,0.,79.59010416666666,              29P     49
6.35930852169566,0.,78.69583333333333,6.22202943561325,0.,            29P     50
78.24869791666666,6.15389441151773,0.,77.35442708333332,              29P     51
6.01864018834457,0.,76.90729166666667,5.95152098935752,0.,            29P     52
76.01302083333333,5.81830516216514,0.,75.56588541666666,              29P     53
5.7522085340514,0.,74.67161458333332,5.62104455009463,0.,             29P     54
74.22447916666667,5.55597719434412,0.,73.33020833333333,              29P     55
5.42687840956624,0.,72.88307291666666,5.36284698063223,0.,            29P     56
71.98880208333333,5.2358266541147,0.,71.54166666666666,               29P     57
5.17283775662534,0.,70.64739583333332,5.04790904498604,0.,            29P     58
70.20026041666667,4.98596923093099,0.,69.30598958333333,              29P     59
4.86314518267488,0.,68.85885416666666,4.80226094856936,0.,            29P     60
67.96458333333332,4.68155449839594,0.,67.51744791666667,              29P     61
4.62173228242413,0.,66.62317708333333,4.50315624549593,0.,            29P     62
66.17604166666666,4.44440242463612,0.,65.28177083333333,              29P     63
4.32796949081302,0.,64.83463541666666,4.27029037794673,0.,            29P     64
63.94036458333332,4.15601310599067,0.,63.49322916666667,              29P     65
4.09941494699824,0.,62.59895833333333,3.98730575875334,0.,            29P     66
62.15182291666667,3.93179472959844,0.,61.25755208333333,              29P     67
3.82186590415153,0.,60.81041666666666,3.76744810795724,0.,            29P     68
59.91614583333332,3.65971177578415,0.,59.46901041666666,              29P     69
3.60639323990312,0.,58.57473958333333,3.50086137700595,0.,            29P     70
58.12760416666666,3.44864805008755,0.,57.23333333333333,              29P     71
3.34533247212867,0.,56.78619791666667,3.29423022118579,0.,            29P     72
55.89192708333333,3.19314257762397,0.,55.44479166666667,              29P     73
3.14315718510241,0.,54.55052083333333,3.04430895333713,0.,            29P     74
54.10338541666667,2.99544611419046,0.,53.20911458333333,              29P     75
2.89884859372018,0.,52.76197916666666,2.85111391249316,0.,            29P     76
51.86770833333333,2.75677821909357,0.,51.42057291666666,              29P     77
2.71017720701705,0.,50.52630208333333,2.61811426694555,0.,            29P     78
50.07916666666667,2.572652339046,0.,49.18489583333333,                29P     79
2.48287288327861,0.,48.73776041666667,2.43855535550544,0.,            29P     80
47.84348958333333,2.35106991401234,0.,47.39635416666667,              29P     81
2.30790200038622,0.,46.50208333333333,2.22272089645252,0.,            29P     82
46.05494791666666,2.18070770623778,0.,45.16067708333333,              29P     83
2.09784105083583,0.,44.71354166666666,2.05698758574038,0.,            29P     84
43.81927083333333,1.9764452719602,0.,43.37213541666667,               29P     85
1.93675642336605,0.,42.47786458333333,1.85854812091048,0.,            29P     86
42.03072916666667,1.82002866713832,0.,41.13645833333333,              29P     87
1.7441638168893,0.,40.68932291666667,1.70681842050029,0.,             29P     88
39.79505208333333,1.63330622916314,0.,39.34791666666666,              29P     89
1.59713943430133,0.,38.45364583333333,1.52598886913337,0.,            29P     90
38.00651041666666,1.49100509891195,0.,37.11223958333333,              29P     91
1.42222488254228,0.,36.66510416666667,1.38842843647703,0.,            29P     92
35.77083333333333,1.32202704182383,0.,35.32369791666667,              29P     93
1.28942209331703,0.,34.42942708333333,1.22540773860906,0.,            29P     94
33.98229166666667,1.19399833248709,0.,33.08802083333333,              29P     95
1.13237897639585,0.,32.64088541666666,1.10216902650371,0.,            29P     96
31.74661458333333,1.04295236339257,0.,31.29947916666666,              29P     97
1.01394565024854,0.,30.40520833333333,0.9571391055453,0.,             29P     98
29.95807291666666,0.92933927405881,0.,29.06380208333333,              29P     99
0.87494999975788,0.,28.61666666666666,0.84836055701379,0.,            29P    100
27.72239583333333,0.79639542731405,0.,27.27526041666667,              29P    101
0.77101974042628,0.,26.38098958333333,0.7214853475107,0.,             29P    102
25.93385416666666,0.69732664154822,0.,25.03958333333333,              29P    103
0.6502292915111,0.,24.59244791666666,0.62729064749915,0.,             29P    104
23.69817708333333,0.58263635642665,0.,23.25104166666666,              29P    105
0.56092070942604,0.,22.35677083333333,0.51871519963555,0.,            29P    106
21.90963541666666,0.49822533690279,0.,21.01536458333333,              29P    107
0.45847403334652,0.,20.56822916666667,0.43921259257725,0.,            29P    108
19.67395833333333,0.40192061941525,0.,19.22682291666666,              29P    109
0.38389008707377,0.,18.33255208333333,0.3490622644212,0.,             29P    110
17.88541666666666,0.3322649741583,0.,16.99114583333333,               29P    111
0.29990581501188,0.,16.54401041666666,0.2843439461734,0.,             29P    112
15.64973958333333,0.25445765352138,0.,15.20260416666667,              29P    113
0.24013322974968,0.,14.30833333333333,0.21272369386973,0.,            29P    114
13.86119791666667,0.19963858180006,0.,12.96692708333333,              29P    115
0.17470937774901,0.,12.51979166666667,0.1628652858029,0.,             29P    116
11.62552083333333,0.14041967110212,0.,11.17838541666667,              29P    117
0.12981814837934,0.,10.28411458333333,0.10985906089916,0.,            29P    118
9.83697916666667,0.10050149617023,0.,8.94270833333333,                29P    119
0.0830315522167,0.,8.49557291666667,0.07491917301712,0.,              29P    120
7.60130208333333,0.05994066562392,0.,7.15416666666667,                29P    121
0.05307453745181,0.,6.25989583333333,0.0405894348799,0.,              29P    122
5.81276041666667,0.03497046049806,0.,4.91848958333333,                29P    123
0.02498040494538,0.,4.47135416666667,0.02060932378895,0.,             29P    124
3.57708333333333,0.01311563031217,0.,3.12994791666667,                29P    125
0.00999301800267,0.,2.23567708333333,0.00499667365259,0.,             29P    126
1.78854166666667,0.00312294161925,0.,0.89427083333333,                29P    127
0.00062460479115,0.,0.44713541666667,0.,0.,0.,0.,                     29P    128
-0.99009900990099,0.;                                                 29P    129
120,27,29,0.,6.28318530717959;                                        31P    130
508,1,0,19,2,0,0;                                                     33P    131
510,31,1,0,33;                                                        35P    132
116,0.,0.,12.21834976350085;                                          37P    133
123,0.,0.,1.;                                                         39P    134
123,1.,0.,0.;                                                         41P    135
190,37,39,41;                                                         43P    136
508,1,0,19,1,0,0;                                                     45P    137
510,43,1,1,45;                                                        47P    138
514,3,25,1,35,1,47,1;                                                 49P    139
186,49,1,0;                                                           51P    140
308,0,12Hsurfaces 8,9,1,51;                                           53P    141
408,53,0.,0.,0.,1.;                                                   55P    142
308,1,23Helliptical_stop_set.zos,1,55;                                57P    143
408,57,0.,0.,0.,1.;                                                   59P    144
S      1G      3D     60P    144                                        T      1
