3D InterOp IGES (v. 2021 1.0.0), Spatial Corp. Copyright (c) 1999-2020. S      1
1H,,1H;,6HNoname,11HL3_cam1.igs,13HSpatial Corp.,20H3D InterOp ACIS/IGESG      1
,32,38, 6,308,15,6HNoname,1.000,2,2HMM,1,1.000,15H20220421.171600,      G      2
1.0e-06,0.00,6HNoname,5HZEMAX,11,0,15H20220421.171600;                  G      3
     116       1       0       0       0       0       0       000010001D      1
     116       0       0       1       0       0       0               0D      2
     123       2       0       0       0       0       0       000010201D      3
     123       0       0       1       0       0       0               0D      4
     123       3       0       0       0       0       0       000010201D      5
     123       0       0       1       0       0       0               0D      6
     192       4       0       0       0       0       0       000010001D      7
     192       0       0       1       1       0       0               0D      8
     124       5       0       0       0       0       0       000010001D      9
     124       0       0       1       0       0       0               0D     10
     100       6       0       0       0       0       9       000010001D     11
     100       0       0       2       0       0       0               0D     12
     502       8       0       0       0       0       0       000010001D     13
     502       0       0       2       1       0       0               0D     14
     124      10       0       0       0       0       0       000010001D     15
     124       0       0       1       0       0       0               0D     16
     100      11       0       0       0       0      15       000010001D     17
     100       0       0       1       0       0       0               0D     18
     504      12       0       0       0       0       0       000010001D     19
     504       0       0       1       1       0       0               0D     20
     508      13       0       0       0       0       0       000010001D     21
     508       0       0       1       1       0       0               0D     22
     508      14       0       0       0       0       0       000010001D     23
     508       0       0       1       1       0       0               0D     24
     510      15       0       0       0       0       0       000010001D     25
     510       0       0       1       1       0       0               0D     26
     116      16       0       0       0       0       0       000010001D     27
     116       0       0       1       0       0       0               0D     28
     123      17       0       0       0       0       0       000010201D     29
     123       0       0       1       0       0       0               0D     30
     123      18       0       0       0       0       0       000010201D     31
     123       0       0       1       0       0       0               0D     32
     190      19       0       0       0       0       0       000010001D     33
     190       0       0       1       1       0       0               0D     34
     508      20       0       0       0       0       0       000010001D     35
     508       0       0       1       1       0       0               0D     36
     510      21       0       0       0       0       0       000010001D     37
     510       0       0       1       1       0       0               0D     38
     110      22       0       0       0       0       0       000010001D     39
     110       0       0       1       0       0       0               0D     40
     126      23       0       0       0       0       0       000010001D     41
     126       0       0     111       0       0       0               0D     42
     120     134       0       0       0       0       0       000010001D     43
     120       0       0       1       0       0       0               0D     44
     508     135       0       0       0       0       0       000010001D     45
     508       0       0       1       1       0       0               0D     46
     510     136       0       0       0       0       0       000010001D     47
     510       0       0       1       1       0       0               0D     48
     514     137       0       0       0       0       0       000010001D     49
     514       0       0       1       1       0       0               0D     50
     186     138       0       0       0       0       0       000010001D     51
     186       0       0       1       0       0       0               0D     52
     308     139       0       0       0       0       0       000010001D     53
     308       0       0       1       0       0       0               0D     54
     408     140       0       0       0       0       0       000010001D     55
     408       0       0       1       0       0       0               0D     56
     308     141       0       0       0       0       0       000010001D     57
     308       0       0       1       0       0       0               0D     58
     408     142       0       0       0       0       0       000000001D     59
     408       0       0       1       0       0       0               0D     60
116,0.,0.,14.02690147156384;                                           1P      1
123,0.,0.,1.;                                                          3P      2
123,0.,1.,0.;                                                          5P      3
192,1,3,85.,5;                                                         7P      4
124,0.,1.,0.,0.,1.,0.,0.,0.,0.,0.,-1.,5.00000000013074;                9P      5
100,0.,0.,0.,-84.99999999999983,-0.00000000000001,                    11P      6
-84.99999999999983,0.00000000000001;                                  11P      7
502,3,-0.00000000000001,-84.99999999999983,5.00000000013074,          13P      8
0.00000000000001,-85.,0.,0.,0.,13.35895378244175;                     13P      9
124,0.,-1.,0.,0.,1.,0.,0.,0.,0.,0.,1.,0.;                             15P     10
100,0.,0.,0.,-85.,-0.00000000000001,-85.,0.00000000000001;            17P     11
504,2,11,13,1,13,1,17,13,2,13,2;                                      19P     12
508,1,0,19,1,1,0;                                                     21P     13
508,1,0,19,2,1,0;                                                     23P     14
510,7,2,0,21,23;                                                      25P     15
116,0.,0.,0.;                                                         27P     16
123,0.,0.,1.;                                                         29P     17
123,1.,0.,0.;                                                         31P     18
190,27,29,31;                                                         33P     19
508,1,0,19,2,0,0;                                                     35P     20
510,33,1,1,35;                                                        37P     21
110,0.,0.,13.35895378244175,0.,0.,14.35895378244175;                  39P     22
126,129,3,0,0,1,0,0.,0.,0.,0.,0.015625,0.015625,0.03125,0.03125,      41P     23
0.046875,0.046875,0.0625,0.0625,0.078125,0.078125,0.09375,            41P     24
0.09375,0.109375,0.109375,0.125,0.125,0.140625,0.140625,0.15625,      41P     25
0.15625,0.171875,0.171875,0.1875,0.1875,0.203125,0.203125,            41P     26
0.21875,0.21875,0.234375,0.234375,0.25,0.25,0.265625,0.265625,        41P     27
0.28125,0.28125,0.296875,0.296875,0.3125,0.3125,0.328125,             41P     28
0.328125,0.34375,0.34375,0.359375,0.359375,0.375,0.375,0.390625,      41P     29
0.390625,0.40625,0.40625,0.421875,0.421875,0.4375,0.4375,             41P     30
0.453125,0.453125,0.46875,0.46875,0.484375,0.484375,0.5,0.5,          41P     31
0.515625,0.515625,0.53125,0.53125,0.546875,0.546875,0.5625,           41P     32
0.5625,0.578125,0.578125,0.59375,0.59375,0.609375,0.609375,           41P     33
0.625,0.625,0.640625,0.640625,0.65625,0.65625,0.671875,0.671875,      41P     34
0.6875,0.6875,0.703125,0.703125,0.71875,0.71875,0.734375,             41P     35
0.734375,0.75,0.75,0.765625,0.765625,0.78125,0.78125,0.796875,        41P     36
0.796875,0.8125,0.8125,0.828125,0.828125,0.84375,0.84375,             41P     37
0.859375,0.859375,0.875,0.875,0.890625,0.890625,0.90625,0.90625,      41P     38
0.921875,0.921875,0.9375,0.9375,0.953125,0.953125,0.96875,            41P     39
0.96875,0.984375,0.984375,1.,1.,1.,1.,1.,1.,1.,1.,1.,1.,1.,1.,        41P     40
1.,1.,1.,1.,1.,1.,1.,1.,1.,1.,1.,1.,1.,1.,1.,1.,1.,1.,1.,1.,1.,       41P     41
1.,1.,1.,1.,1.,1.,1.,1.,1.,1.,1.,1.,1.,1.,1.,1.,1.,1.,1.,1.,1.,       41P     42
1.,1.,1.,1.,1.,1.,1.,1.,1.,1.,1.,1.,1.,1.,1.,1.,1.,1.,1.,1.,1.,       41P     43
1.,1.,1.,1.,1.,1.,1.,1.,1.,1.,1.,1.,1.,1.,1.,1.,1.,1.,1.,1.,1.,       41P     44
1.,1.,1.,1.,1.,1.,1.,1.,1.,1.,1.,1.,1.,1.,1.,1.,1.,1.,1.,1.,1.,       41P     45
1.,1.,1.,1.,1.,1.,1.,1.,1.,1.,1.,1.,1.,1.,1.,1.,1.,0.,0.,             41P     46
13.35895378244175,0.,0.44713541666667,13.35895378244175,0.,           41P     47
0.89427083333333,13.3582133263846,0.,1.78854166666667,                41P     48
13.35525166042473,0.,2.23567708333333,13.35303045053329,0.,           41P     49
3.12994791666667,13.34710775156448,0.,3.57708333333333,               41P     50
13.34340626250963,0.,4.47135416666667,13.3345237957576,0.,            41P     51
4.91848958333333,13.32934281809413,0.,5.81276041666667,               41P     52
13.31750247970882,0.,6.25989583333333,13.3108431190318,0.,            41P     53
7.15416666666667,13.29604743406573,0.,7.60130208333333,               41P     54
13.28791110983248,0.,8.49557291666667,13.27016322955299,0.,           41P     55
8.94270833333333,13.26055167357341,0.,9.83697916666667,               41P     56
13.23985537211559,0.,10.28411458333333,13.22877062671471,0.,          41P     57
11.17838541666667,13.20513029708315,0.,11.62552083333333,             41P     58
13.19257471294033,0.,12.51979166666667,13.16599536236958,0.,          41P     59
12.96692708333333,13.15197159603979,0.,13.86119791666667,             41P     60
13.12245884072496,0.,14.30833333333333,13.10696985184811,0.,          41P     61
15.20260416666667,13.07452991105838,0.,15.64973958333333,             41P     62
13.05757895926348,0.,16.54401041666666,13.02221864885287,0.,          41P     63
16.99114583333333,13.00380929036463,0.,17.88541666666666,             41P     64
12.9655360156956,0.,18.33255208333333,12.94567209965149,0.,           41P     65
19.22682291666666,12.9044938479484,0.,19.67395833333333,              41P     66
12.88317951243499,0.,20.56822916666667,12.83910484458547,0.,          41P     67
21.01536458333333,12.81634451240346,0.,21.90963541666666,             41P     68
12.76938255422706,0.,22.35677083333333,12.74518092839494,0.,          41P     69
23.25104166666666,12.69534136139942,0.,23.69817708333333,             41P     70
12.6697034204061,0.,24.59244791666666,12.6169964720527,0.,            41P     71
25.03958333333333,12.58992746487015,0.,25.93385416666666,             41P     72
12.53436389837011,0.,26.38098958333333,12.50586933923719,0.,          41P     73
27.27526041666667,12.44746044290253,0.,27.72239583333333,             41P     74
12.41754610589198,0.,28.61666666666666,12.35630368206435,0.,          41P     75
29.06380208333333,12.32497559544468,0.,29.95807291666666,             41P     76
12.26091194902664,0.,30.40520833333333,12.22817638943148,0.,          41P     77
31.29947916666666,12.16130431604523,0.,31.74661458333333,             41P     78
12.12716780246268,0.,32.64088541666666,12.05750057626138,0.,          41P     79
33.08802083333333,12.0219698638561,0.,33.98229166666667,              41P     80
11.94952122501379,0.,34.42942708333333,11.91260329879474,0.,          41P     81
35.32369791666667,11.8373874407006,0.,35.77083333333333,              41P     82
11.79908950904754,0.,36.66510416666667,11.72112106523067,0.,          41P     83
37.11223958333333,11.6814505532925,0.,38.00651041666666,              41P     84
11.60074458410346,0.,38.45364583333333,11.55970912708143,0.,          41P     85
39.34791666666666,11.47628110615673,0.,39.79505208333333,             41P     86
11.43388854248565,0.,40.68932291666667,11.34775434302121,0.,          41P     87
41.13645833333333,11.30401270746176,0.,42.03072916666667,             41P     88
11.21518858832137,0.,42.47786458333333,11.17010610497623,0.,          41P     89
43.37213541666667,11.07860869666056,0.,43.81927083333333,             41P     90
11.0321937719273,0.,44.71354166666666,10.93804006242887,0.,           41P     91
45.16067708333333,10.89030127790205,0.,46.05494791666666,             41P     92
10.79350859847111,0.,46.50208333333333,10.74445470380602,0.,          41P     93
47.39635416666667,10.64504071465172,0.,47.84348958333333,             41P     94
10.59468062040183,0.,48.73776041666667,10.49266329635273,0.,          41P     95
49.18489583333333,10.44100606679275,0.,50.07916666666667,             41P     96
10.33640368293994,0.,50.52630208333333,10.28345852888589,0.,          41P     97
51.42057291666666,10.17628964623151,0.,51.86770833333333,             41P     98
10.12206591786914,0.,52.76197916666666,10.01234936900229,0.,          41P     99
53.20911458333333,9.95685654873461,0.,54.10338541666667,              41P    100
9.84461142355595,0.,54.55052083333333,9.78785911888029,0.,            41P    101
55.44479166666667,9.67310475039592,0.,55.89192708333333,              41P    102
9.61510268682072,0.,56.78619791666667,9.49785863702498,0.,            41P    103
57.23333333333333,9.43861665103584,0.,58.12760416666666,              41P    104
9.31890269690197,0.,58.57473958333333,9.25843072898627,0.,            41P    105
59.46901041666666,9.136266848583,0.,59.91614583333332,                41P    106
9.07457493632182,0.,60.81041666666666,8.94998129507297,0.,            41P    107
61.25755208333333,8.88707956630877,0.,62.15182291666667,              41P    108
8.76007650341212,0.,62.59895833333333,8.69597516949998,0.,            41P    109
63.49322916666667,8.5665831845208,0.,63.94036458333332,               41P    110
8.5012925336707,0.,64.83463541666666,8.36953227332434,0.,             41P    111
65.28177083333333,8.30306266404144,0.,66.17604166666666,              41P    112
8.16895490917847,0.,66.62317708333333,8.10131676380798,0.,            41P    113
67.51744791666667,7.96488241661447,0.,67.96458333333332,              41P    114
7.89608621499707,0.,68.85885416666666,7.75734628642163,0.,            41P    115
69.30598958333333,7.68740255966508,0.,70.20026041666667,              41P    116
7.54637815708348,0.,70.64739583333332,7.47529748145563,0.,            41P    117
71.54166666666666,7.33200979658274,0.,71.98880208333333,              41P    118
7.2598027875305,0.,72.88307291666666,7.11427308458858,0.,             41P    119
73.33020833333333,7.04095039088718,0.,74.22447916666667,              41P    120
6.89319999503852,0.,74.67161458333332,6.81877229307491,0.,            41P    121
75.56588541666666,6.66882257912606,0.,76.01302083333333,              41P    122
6.59330056731975,0.,76.90729166666667,6.44117294870368,0.,            41P    123
77.35442708333332,6.36456734206804,0.,78.24869791666666,              41P    124
6.21028326010979,0.,78.69583333333333,6.13260478495641,0.,            41P    125
79.59010416666666,5.97618569842695,0.,80.03723958333333,              41P    126
5.89744508721518,0.,80.93151041666667,5.73891246217753,0.,            41P    127
81.37864583333332,5.659120448511,0.,82.27291666666666,                41P    128
5.49849574846172,0.,82.72005208333333,5.41766306223333,0.,            41P    129
83.61432291666667,5.25496773854202,0.,84.06145833333332,              41P    130
5.17310510122843,0.,84.95572916666666,5.00836058387694,0.,            41P    131
85.40286458333333,4.92547870398335,0.,85.84999999999999,              41P    132
4.84209254829468,0.,0.99009900990099;                                 41P    133
120,39,41,0.,6.28318530717959;                                        43P    134
508,1,0,19,1,0,0;                                                     45P    135
510,43,1,0,45;                                                        47P    136
514,3,25,1,37,0,47,1;                                                 49P    137
186,49,1,0;                                                           51P    138
308,0,12Hsurfaces 3,4,1,51;                                           53P    139
408,53,0.,0.,0.,1.;                                                   55P    140
308,1,23Helliptical_stop_set.zos,1,55;                                57P    141
408,57,0.,0.,0.,1.;                                                   59P    142
S      1G      3D     60P    142                                        T      1
