3D InterOp IGES (v. 2021 1.0.0), Spatial Corp. Copyright (c) 1999-2020. S      1
1H,,1H;,6HNoname,54HTMP_baseline_rev_multicam_test1_2groups_wedgecam21.iG      1
gs,13HSpatial Corp.,20H3D InterOp ACIS/IGES,32,38, 6,308,15,6HNoname,   G      2
1.000,2,2HMM,1,1.000,15H20210728.133121,1.0e-06,0.00,6HNoname,5HZEMAX,  G      3
11,0,15H20210728.133121;                                                G      4
     116       1       0       0       0       0       0       000010001D      1
     116       0       0       1       0       0       0               0D      2
     123       2       0       0       0       0       0       000010201D      3
     123       0       0       1       0       0       0               0D      4
     123       3       0       0       0       0       0       000010201D      5
     123       0       0       1       0       0       0               0D      6
     192       4       0       0       0       0       0       000010001D      7
     192       0       0       1       1       0       0               0D      8
     124       5       0       0       0       0       0       000010001D      9
     124       0       0       1       0       0       0               0D     10
     100       6       0       0       0       0       9       000010001D     11
     100       0       0       1       0       0       0               0D     12
     502       7       0       0       0       0       0       000010001D     13
     502       0       0       2       1       0       0               0D     14
     126       9       0       0       0       0       0       000010001D     15
     126       0       0      48       0       0       0               0D     16
     504      57       0       0       0       0       0       000010001D     17
     504       0       0       1       1       0       0               0D     18
     508      58       0       0       0       0       0       000010001D     19
     508       0       0       1       1       0       0               0D     20
     508      59       0       0       0       0       0       000010001D     21
     508       0       0       1       1       0       0               0D     22
     510      60       0       0       0       0       0       000010001D     23
     510       0       0       1       1       0       0               0D     24
     128      61       0       0       0       0       0       000010001D     25
     128       0       0     149       0       0       0               0D     26
     508     210       0       0       0       0       0       000010001D     27
     508       0       0       1       1       0       0               0D     28
     510     211       0       0       0       0       0       000010001D     29
     510       0       0       1       1       0       0               0D     30
     116     212       0       0       0       0       0       000010001D     31
     116       0       0       1       0       0       0               0D     32
     123     213       0       0       0       0       0       000010201D     33
     123       0       0       1       0       0       0               0D     34
     123     214       0       0       0       0       0       000010201D     35
     123       0       0       1       0       0       0               0D     36
     190     215       0       0       0       0       0       000010001D     37
     190       0       0       1       1       0       0               0D     38
     508     216       0       0       0       0       0       000010001D     39
     508       0       0       1       1       0       0               0D     40
     510     217       0       0       0       0       0       000010001D     41
     510       0       0       1       1       0       0               0D     42
     514     218       0       0       0       0       0       000010001D     43
     514       0       0       1       1       0       0               0D     44
     186     219       0       0       0       0       0       000010001D     45
     186       0       0       1       0       0       0               0D     46
     308     220       0       0       0       0       0       000010001D     47
     308       0       0       1       0       0       0               0D     48
     408     221       0       0       0       0       0       000010001D     49
     408       0       0       1       0       0       0               0D     50
     308     222       0       0       0       0       0       000010001D     51
     308       0       0       2       0       0       0               0D     52
     408     224       0       0       0       0       0       000000001D     53
     408       0       0       1       0       0       0               0D     54
116,0.,0.,9.45632653860488;                                            1P      1
123,0.,0.,1.;                                                          3P      2
123,0.,1.,0.;                                                          5P      3
192,1,3,100.,5;                                                        7P      4
124,0.,1.,0.,0.,1.,0.,0.,0.,0.,0.,-1.,8.823113927708;                  9P      5
100,0.,0.,0.,-100.,-0.00000000000001,-100.,0.00000000000001;          11P      6
502,2,70.76229758300092,-70.65902094407213,-2.70137487089474,         13P      7
-0.00000000000001,-100.,8.823113927708;                               13P      8
126,33,3,0,1,1,1,-630.56597822197102,-630.56597822197102,             15P      9
-630.56597822197102,-630.56597822197102,-594.90969048218085,          15P     10
-594.90969048218085,-554.75047625687625,-554.75047625687625,          15P     11
-514.59068776292827,-514.59068776292827,-474.43764520124756,          15P     12
-474.43764520124756,-435.15864820848083,-435.15864820848083,          15P     13
-395.89595108436004,-395.89595108436004,-356.62581717860053,          15P     14
-356.62581717860053,-317.32881136930627,-317.32881136930627,          15P     15
-277.17660120402434,-277.17660120402434,-237.0171594570071,           15P     16
-237.0171594570071,-196.85762360970176,-196.85762360970176,           15P     17
-157.54946354096171,-157.54946354096171,-118.27155814133744,          15P     18
-118.27155814133744,-79.00909017706826,-79.00909017706826,            15P     19
-39.7382134052312,-39.7382134052312,0.,0.,0.,0.,1.,1.,1.,1.,1.,       15P     20
1.,1.,1.,1.,1.,1.,1.,1.,1.,1.,1.,1.,1.,1.,1.,1.,1.,1.,1.,1.,1.,       15P     21
1.,1.,1.,1.,1.,1.,1.,1.,70.76229758300092,-70.65902094407213,         15P     22
-2.70137487089474,79.15735400953888,-62.2516941350725,                15P     23
-2.37995318871201,85.98627789003542,-52.41617385433113,               15P     24
-2.00393004299658,96.49695290145016,-29.45030723182581,               15P     25
-1.12591879753282,99.56666206029264,-16.2916948819102,                15P     26
-0.62285005609001,100.34802782939835,10.45073893743669,               15P     27
0.39954365586556,98.05176444739466,23.76612565419555,                 15P     28
0.90860605996221,88.3573175242408,48.70217199065183,                  15P     29
1.86193952047096,81.05742882125999,60.07244654315392,                 15P     30
2.29663807050615,62.61756209865293,79.05908045228188,                 15P     31
3.02251871588881,51.74278299694944,86.56828088459504,                 15P     32
3.30960400347611,27.72012221269674,96.96821882365333,                 15P     33
3.70720547929737,14.8060892314966,99.76000279176614,                  15P     34
3.81393856101389,-11.36719162600011,100.21042999619323,               15P     35
3.83115890620054,-24.37218422382117,97.86372167033196,                15P     36
3.74144157335178,-48.74604219274161,88.29138850908735,                15P     37
3.37548037105749,-59.87699309076379,81.15545832324629,                15P     38
3.10266563025103,-78.95900098917939,62.80511945517111,                15P     39
2.40111126920415,-86.64285908138885,51.69072314649956,                15P     40
1.97619523594683,-97.1831309042775,27.10017360936477,                 15P     41
1.03607051169276,-99.93266887505911,13.87095224347238,                15P     42
0.53030230712592,-100.06488883747525,-12.88256516218357,              15P     43
-0.4925151429615,-97.44623104119421,-26.13831541223378,               15P     44
-0.99929757699344,-87.25778017684397,-50.57223587829591,              15P     45
-1.93343419341651,-79.89227921499982,-61.55306416681425,              15P     46
-2.35324376909239,-61.35204383717323,-80.04510427884099,              15P     47
-3.06021553013251,-50.35938778464168,-87.38025263064739,              15P     48
-3.3406466083885,-26.17456581445658,-97.39678591300984,               15P     49
-3.72359008738014,-13.21777092970323,-99.9828358490451,               15P     50
-3.82245772266227,12.95957234296181,-100.01699750425051,              15P     51
-3.82376376166036,25.92580567968598,-97.4636765710563,                15P     52
-3.72614739344425,50.28037344890276,-87.44885011115974,               15P     53
-3.34326916822002,61.40617654591267,-80.02881707488812,               15P     54
-3.05959285176975,70.76229758300092,-70.65902094407213,               15P     55
-2.70137487089474,-630.56597822197102,0.;                             15P     56
504,2,11,13,2,13,2,15,13,1,13,1;                                      17P     57
508,1,0,17,1,1,0;                                                     19P     58
508,1,0,17,2,1,0;                                                     21P     59
510,7,2,0,19,21;                                                      23P     60
128,12,12,3,3,0,0,1,0,0,0.,0.,0.,0.,0.25,0.25,0.25,0.5,0.5,0.5,       25P     61
0.75,0.75,0.75,1.,1.,1.,1.,0.,0.,0.,0.,0.25,0.25,0.25,0.5,0.5,        25P     62
0.5,0.75,0.75,0.75,1.,1.,1.,1.,1.,1.,1.,1.,1.,1.,1.,1.,1.,1.,1.,      25P     63
1.,1.,1.,1.,1.,1.,1.,1.,1.,1.,1.,1.,1.,1.,1.,1.,1.,1.,1.,1.,1.,       25P     64
1.,1.,1.,1.,1.,1.,1.,1.,1.,1.,1.,1.,1.,1.,1.,1.,1.,1.,1.,1.,1.,       25P     65
1.,1.,1.,1.,1.,1.,1.,1.,1.,1.,1.,1.,1.,1.,1.,1.,1.,1.,1.,1.,1.,       25P     66
1.,1.,1.,1.,1.,1.,1.,1.,1.,1.,1.,1.,1.,1.,1.,1.,1.,1.,1.,1.,1.,       25P     67
1.,1.,1.,1.,1.,1.,1.,1.,1.,1.,1.,1.,1.,1.,1.,1.,1.,1.,1.,1.,1.,       25P     68
1.,1.,1.,1.,1.,1.,1.,1.,1.,1.,1.,1.,1.,1.,1.,1.,1.,1.,1.,1.,1.,       25P     69
1.,1.,1.,1.,1.,1.,1.,1.,1.,1.,1.,1.,1.,1.,1.,1.,1.,1.,1.,1.,1.,       25P     70
1.,1.,1.,1.,1.,1.,1.,1.,1.,1.,1.,-100.001,-100.001,                   25P     71
-3.82315215884728,-83.33416666666668,-100.001,-3.82315215884728,      25P     72
-66.66733333333333,-100.001,-3.82315215884728,-50.0005,-100.001,      25P     73
-3.82315215884728,-33.33366666666667,-100.001,-3.82315215884728,      25P     74
-16.66683333333333,-100.001,-3.82315215884728,0.,-100.001,            25P     75
-3.82315215884728,16.66683333333333,-100.001,-3.82315215884728,       25P     76
33.33366666666669,-100.001,-3.82315215884728,50.00050000000002,       25P     77
-100.001,-3.82315215884728,66.66733333333335,-100.001,                25P     78
-3.82315215884728,83.33416666666668,-100.001,-3.82315215884728,       25P     79
100.001,-100.001,-3.82315215884728,-100.001,-83.33416666666668,       25P     80
-3.1859601323723,-83.33416666666668,-83.33416666666668,               25P     81
-3.1859601323723,-66.66733333333333,-83.33416666666668,               25P     82
-3.1859601323723,-50.0005,-83.33416666666668,-3.1859601323723,        25P     83
-33.33366666666667,-83.33416666666668,-3.1859601323723,               25P     84
-16.66683333333333,-83.33416666666668,-3.1859601323723,0.,            25P     85
-83.33416666666668,-3.1859601323723,16.66683333333333,                25P     86
-83.33416666666668,-3.1859601323723,33.33366666666669,                25P     87
-83.33416666666668,-3.1859601323723,50.00050000000002,                25P     88
-83.33416666666668,-3.1859601323723,66.66733333333335,                25P     89
-83.33416666666668,-3.1859601323723,83.33416666666668,                25P     90
-83.33416666666668,-3.1859601323723,100.001,-83.33416666666668,       25P     91
-3.1859601323723,-100.001,-66.66733333333333,-2.54876810589804,       25P     92
-83.33416666666668,-66.66733333333333,-2.54876810589804,              25P     93
-66.66733333333333,-66.66733333333333,-2.54876810589804,              25P     94
-50.0005,-66.66733333333333,-2.54876810589804,                        25P     95
-33.33366666666667,-66.66733333333333,-2.54876810589804,              25P     96
-16.66683333333333,-66.66733333333333,-2.54876810589804,0.,           25P     97
-66.66733333333333,-2.54876810589804,16.66683333333333,               25P     98
-66.66733333333333,-2.54876810589804,33.33366666666669,               25P     99
-66.66733333333333,-2.54876810589804,50.00050000000002,               25P    100
-66.66733333333333,-2.54876810589804,66.66733333333335,               25P    101
-66.66733333333333,-2.54876810589804,83.33416666666668,               25P    102
-66.66733333333333,-2.54876810589804,100.001,-66.66733333333333,      25P    103
-2.54876810589804,-100.001,-50.0005,-1.91157607942364,                25P    104
-83.33416666666668,-50.0005,-1.91157607942364,                        25P    105
-66.66733333333333,-50.0005,-1.91157607942364,-50.0005,-50.0005,      25P    106
-1.91157607942364,-33.33366666666667,-50.0005,-1.91157607942364,      25P    107
-16.66683333333333,-50.0005,-1.91157607942364,0.,-50.0005,            25P    108
-1.91157607942364,16.66683333333333,-50.0005,-1.91157607942364,       25P    109
33.33366666666669,-50.0005,-1.91157607942364,50.00050000000002,       25P    110
-50.0005,-1.91157607942364,66.66733333333335,-50.0005,                25P    111
-1.91157607942364,83.33416666666668,-50.0005,-1.91157607942364,       25P    112
100.001,-50.0005,-1.91157607942364,-100.001,-33.33366666666667,       25P    113
-1.27438405294924,-83.33416666666668,-33.33366666666667,              25P    114
-1.27438405294924,-66.66733333333333,-33.33366666666667,              25P    115
-1.27438405294924,-50.0005,-33.33366666666667,-1.27438405294924,      25P    116
-33.33366666666667,-33.33366666666667,-1.27438405294924,              25P    117
-16.66683333333333,-33.33366666666667,-1.27438405294924,0.,           25P    118
-33.33366666666667,-1.27438405294924,16.66683333333333,               25P    119
-33.33366666666667,-1.27438405294924,33.33366666666669,               25P    120
-33.33366666666667,-1.27438405294924,50.00050000000002,               25P    121
-33.33366666666667,-1.27438405294924,66.66733333333335,               25P    122
-33.33366666666667,-1.27438405294924,83.33416666666668,               25P    123
-33.33366666666667,-1.27438405294924,100.001,-33.33366666666667,      25P    124
-1.27438405294924,-100.001,-16.66683333333333,-0.63719202647455,      25P    125
-83.33416666666668,-16.66683333333333,-0.63719202647455,              25P    126
-66.66733333333333,-16.66683333333333,-0.63719202647455,              25P    127
-50.0005,-16.66683333333333,-0.63719202647455,                        25P    128
-33.33366666666667,-16.66683333333333,-0.63719202647455,              25P    129
-16.66683333333333,-16.66683333333333,-0.63719202647455,0.,           25P    130
-16.66683333333333,-0.63719202647455,16.66683333333333,               25P    131
-16.66683333333333,-0.63719202647455,33.33366666666669,               25P    132
-16.66683333333333,-0.63719202647455,50.00050000000002,               25P    133
-16.66683333333333,-0.63719202647455,66.66733333333335,               25P    134
-16.66683333333333,-0.63719202647455,83.33416666666668,               25P    135
-16.66683333333333,-0.63719202647455,100.001,-16.66683333333333,      25P    136
-0.63719202647455,-100.001,0.,0.,-83.33416666666668,0.,0.,            25P    137
-66.66733333333333,0.,0.,-50.0005,0.,0.,-33.33366666666667,0.,        25P    138
0.,-16.66683333333333,0.,0.,0.,0.,0.,16.66683333333333,0.,0.,         25P    139
33.33366666666669,0.,0.,50.00050000000002,0.,0.,                      25P    140
66.66733333333335,0.,0.,83.33416666666668,0.,0.,100.001,0.,0.,        25P    141
-100.001,16.66683333333333,0.63719202647455,-83.33416666666668,       25P    142
16.66683333333333,0.63719202647455,-66.66733333333333,                25P    143
16.66683333333333,0.63719202647455,-50.0005,16.66683333333333,        25P    144
0.63719202647455,-33.33366666666667,16.66683333333333,                25P    145
0.63719202647455,-16.66683333333333,16.66683333333333,                25P    146
0.63719202647455,0.,16.66683333333333,0.63719202647455,               25P    147
16.66683333333333,16.66683333333333,0.63719202647455,                 25P    148
33.33366666666669,16.66683333333333,0.63719202647455,                 25P    149
50.00050000000002,16.66683333333333,0.63719202647455,                 25P    150
66.66733333333335,16.66683333333333,0.63719202647455,                 25P    151
83.33416666666668,16.66683333333333,0.63719202647455,100.001,         25P    152
16.66683333333333,0.63719202647455,-100.001,33.33366666666669,        25P    153
1.27438405294924,-83.33416666666668,33.33366666666669,                25P    154
1.27438405294924,-66.66733333333333,33.33366666666669,                25P    155
1.27438405294924,-50.0005,33.33366666666669,1.27438405294924,         25P    156
-33.33366666666667,33.33366666666669,1.27438405294924,                25P    157
-16.66683333333333,33.33366666666669,1.27438405294924,0.,             25P    158
33.33366666666669,1.27438405294924,16.66683333333333,                 25P    159
33.33366666666669,1.27438405294924,33.33366666666669,                 25P    160
33.33366666666669,1.27438405294924,50.00050000000002,                 25P    161
33.33366666666669,1.27438405294924,66.66733333333335,                 25P    162
33.33366666666669,1.27438405294924,83.33416666666668,                 25P    163
33.33366666666669,1.27438405294924,100.001,33.33366666666669,         25P    164
1.27438405294924,-100.001,50.00050000000002,1.91157607942364,         25P    165
-83.33416666666668,50.00050000000002,1.91157607942364,                25P    166
-66.66733333333333,50.00050000000002,1.91157607942364,-50.0005,       25P    167
50.00050000000002,1.91157607942364,-33.33366666666667,                25P    168
50.00050000000002,1.91157607942364,-16.66683333333333,                25P    169
50.00050000000002,1.91157607942364,0.,50.00050000000002,              25P    170
1.91157607942364,16.66683333333333,50.00050000000002,                 25P    171
1.91157607942364,33.33366666666669,50.00050000000002,                 25P    172
1.91157607942364,50.00050000000002,50.00050000000002,                 25P    173
1.91157607942364,66.66733333333335,50.00050000000002,                 25P    174
1.91157607942364,83.33416666666668,50.00050000000002,                 25P    175
1.91157607942364,100.001,50.00050000000002,1.91157607942364,          25P    176
-100.001,66.66733333333335,2.54876810589804,-83.33416666666668,       25P    177
66.66733333333335,2.54876810589804,-66.66733333333333,                25P    178
66.66733333333335,2.54876810589804,-50.0005,66.66733333333335,        25P    179
2.54876810589804,-33.33366666666667,66.66733333333335,                25P    180
2.54876810589804,-16.66683333333333,66.66733333333335,                25P    181
2.54876810589804,0.,66.66733333333335,2.54876810589804,               25P    182
16.66683333333333,66.66733333333335,2.54876810589804,                 25P    183
33.33366666666669,66.66733333333335,2.54876810589804,                 25P    184
50.00050000000002,66.66733333333335,2.54876810589804,                 25P    185
66.66733333333335,66.66733333333335,2.54876810589804,                 25P    186
83.33416666666668,66.66733333333335,2.54876810589804,100.001,         25P    187
66.66733333333335,2.54876810589804,-100.001,83.33416666666668,        25P    188
3.1859601323723,-83.33416666666668,83.33416666666668,                 25P    189
3.1859601323723,-66.66733333333333,83.33416666666668,                 25P    190
3.1859601323723,-50.0005,83.33416666666668,3.1859601323723,           25P    191
-33.33366666666667,83.33416666666668,3.1859601323723,                 25P    192
-16.66683333333333,83.33416666666668,3.1859601323723,0.,              25P    193
83.33416666666668,3.1859601323723,16.66683333333333,                  25P    194
83.33416666666668,3.1859601323723,33.33366666666669,                  25P    195
83.33416666666668,3.1859601323723,50.00050000000002,                  25P    196
83.33416666666668,3.1859601323723,66.66733333333335,                  25P    197
83.33416666666668,3.1859601323723,83.33416666666668,                  25P    198
83.33416666666668,3.1859601323723,100.001,83.33416666666668,          25P    199
3.1859601323723,-100.001,100.001,3.82315215884728,                    25P    200
-83.33416666666668,100.001,3.82315215884728,-66.66733333333333,       25P    201
100.001,3.82315215884728,-50.0005,100.001,3.82315215884728,           25P    202
-33.33366666666667,100.001,3.82315215884728,-16.66683333333333,       25P    203
100.001,3.82315215884728,0.,100.001,3.82315215884728,                 25P    204
16.66683333333333,100.001,3.82315215884728,33.33366666666669,         25P    205
100.001,3.82315215884728,50.00050000000002,100.001,                   25P    206
3.82315215884728,66.66733333333335,100.001,3.82315215884728,          25P    207
83.33416666666668,100.001,3.82315215884728,100.001,100.001,           25P    208
3.82315215884728,0.,1.,0.,1.;                                         25P    209
508,1,0,17,2,0,0;                                                     27P    210
510,25,1,1,27;                                                        29P    211
116,0.,0.,8.823113927708;                                             31P    212
123,0.,0.,1.;                                                         33P    213
123,1.,0.,0.;                                                         35P    214
190,31,33,35;                                                         37P    215
508,1,0,17,1,0,0;                                                     39P    216
510,37,1,1,39;                                                        41P    217
514,3,23,1,29,0,41,1;                                                 43P    218
186,43,1,0;                                                           45P    219
308,0,14Hsurfaces 13,14,1,45;                                         47P    220
408,47,0.,0.,0.,1.;                                                   49P    221
308,1,54HTMP_baseline_rev_multicam_test1_2groups_wedgecam21.zmx,      51P    222
1,49;                                                                 51P    223
408,51,0.,0.,0.,1.;                                                   53P    224
S      1G      4D     54P    224                                        T      1
